HIERARCHY
ROOT Hips
{
  OFFSET 5.84602e-005 68.8428 3.50346
  CHANNELS 6 Xposition Yposition Zposition Zrotation Xrotation Yrotation
  JOINT Spine
  {
    OFFSET 0 8.597 -4.6522
    CHANNELS 3 Zrotation Xrotation Yrotation
    JOINT Spine1
    {
      OFFSET 0 7.8454 0.4098
      CHANNELS 3 Zrotation Xrotation Yrotation
      JOINT Spine2
      {
        OFFSET 0 9.7078 -2.1609
        CHANNELS 3 Zrotation Xrotation Yrotation
        JOINT Neck
        {
          OFFSET 0 21.8761 -0.4549
          CHANNELS 3 Zrotation Xrotation Yrotation
          JOINT Head
          {
            OFFSET 0 12.3537 3.3602
            CHANNELS 3 Zrotation Xrotation Yrotation
            End Site
            {
              OFFSET 0.0001 18.9506 0.5657
            }
          }
        }
        JOINT LeftShoulder
        {
          OFFSET 2.2086 21.1115 7.2329
          CHANNELS 3 Zrotation Xrotation Yrotation
          JOINT LeftArm
          {
            OFFSET 13.1193 3.0282 -4.8998
            CHANNELS 3 Zrotation Xrotation Yrotation
            JOINT LeftForeArm
            {
              OFFSET 27.4081 -0.0973053 -0.2375
              CHANNELS 3 Zrotation Xrotation Yrotation
              JOINT LeftHand
              {
                OFFSET 22.8641 0.0662994 -0.1369
                CHANNELS 3 Zrotation Xrotation Yrotation
                JOINT LeftHandIndex1
                {
                  OFFSET 8.8614 0.775009 2.4612
                  CHANNELS 3 Zrotation Xrotation Yrotation
                  JOINT LeftHandIndex2
                  {
                    OFFSET 3.3146 -0.808304 0.5841
                    CHANNELS 3 Zrotation Xrotation Yrotation
                    JOINT LeftHandIndex3
                    {
                      OFFSET 2.2628 -0.552002 0.3989
                      CHANNELS 3 Zrotation Xrotation Yrotation
                      End Site
                      {
                        OFFSET 1.6102 -0.4807 0.2612
                      }
                    }
                  }
                }
                JOINT LeftHandMiddle1
                {
                  OFFSET 8.9937 0.895004 0.2143
                  CHANNELS 3 Zrotation Xrotation Yrotation
                  JOINT LeftHandMiddle2
                  {
                    OFFSET 4.0984 0.0113983 -0.0242
                    CHANNELS 3 Zrotation Xrotation Yrotation
                    JOINT LeftHandMiddle3
                    {
                      OFFSET 2.2716 0.00689697 -0.0138001
                      CHANNELS 3 Zrotation Xrotation Yrotation
                      End Site
                      {
                        OFFSET 2.0404 -0.1441 0.0027
                      }
                    }
                  }
                }
                JOINT LeftHandRing1
                {
                  OFFSET 8.5234 0.597198 -2.0164
                  CHANNELS 3 Zrotation Xrotation Yrotation
                  JOINT LeftHandRing2
                  {
                    OFFSET 3.7188 -0.188293 -0.2328
                    CHANNELS 3 Zrotation Xrotation Yrotation
                    JOINT LeftHandRing3
                    {
                      OFFSET 2.1191 -0.106598 -0.1332
                      CHANNELS 3 Zrotation Xrotation Yrotation
                      End Site
                      {
                        OFFSET 1.8737 -0.2304 -0.0886
                      }
                    }
                  }
                }
                JOINT LeftHandPinky1
                {
                  OFFSET 7.9094 -0.601089 -3.4825
                  CHANNELS 3 Zrotation Xrotation Yrotation
                  JOINT LeftHandPinky2
                  {
                    OFFSET 2.2874 -0.477005 -0.6314
                    CHANNELS 3 Zrotation Xrotation Yrotation
                    JOINT LeftHandPinky3
                    {
                      OFFSET 1.6774 -0.349396 -0.4633
                      CHANNELS 3 Zrotation Xrotation Yrotation
                      End Site
                      {
                        OFFSET 1.4888 -0.4091 -0.3416
                      }
                    }
                  }
                }
                JOINT LeftHandThumb1
                {
                  OFFSET 1.833 -1.3875 1.3896
                  CHANNELS 3 Zrotation Xrotation Yrotation
                  JOINT LeftHandThumb2
                  {
                    OFFSET 3.4129 -1.121 2.5732
                    CHANNELS 3 Zrotation Xrotation Yrotation
                    JOINT LeftHandThumb3
                    {
                      OFFSET 2.2474 -0.804199 1.6192
                      CHANNELS 3 Zrotation Xrotation Yrotation
                      End Site
                      {
                        OFFSET 1.6527 -0.5689 1.1317
                      }
                    }
                  }
                }
              }
            }
          }
        }
        JOINT RightShoulder
        {
          OFFSET -2.2086 21.1115 7.2329
          CHANNELS 3 Zrotation Xrotation Yrotation
          JOINT RightArm
          {
            OFFSET -13.1216 3.0287 -4.9007
            CHANNELS 3 Zrotation Xrotation Yrotation
            JOINT RightForeArm
            {
              OFFSET -27.4081 -0.0973053 -0.2375
              CHANNELS 3 Zrotation Xrotation Yrotation
              JOINT RightHand
              {
                OFFSET -22.8641 0.0664063 -0.1369
                CHANNELS 3 Zrotation Xrotation Yrotation
                JOINT RightHandIndex1
                {
                  OFFSET -8.8614 0.774994 2.4612
                  CHANNELS 3 Zrotation Xrotation Yrotation
                  JOINT RightHandIndex2
                  {
                    OFFSET -3.3146 -0.808304 0.5841
                    CHANNELS 3 Zrotation Xrotation Yrotation
                    JOINT RightHandIndex3
                    {
                      OFFSET -2.2628 -0.552002 0.3989
                      CHANNELS 3 Zrotation Xrotation Yrotation
                      End Site
                      {
                        OFFSET -1.6102 -0.4807 0.2612
                      }
                    }
                  }
                }
                JOINT RightHandMiddle1
                {
                  OFFSET -8.9937 0.894989 0.2143
                  CHANNELS 3 Zrotation Xrotation Yrotation
                  JOINT RightHandMiddle2
                  {
                    OFFSET -4.0984 0.0113983 -0.0242
                    CHANNELS 3 Zrotation Xrotation Yrotation
                    JOINT RightHandMiddle3
                    {
                      OFFSET -2.2716 0.00691223 -0.0138001
                      CHANNELS 3 Zrotation Xrotation Yrotation
                      End Site
                      {
                        OFFSET -2.0404 -0.1441 0.0027
                      }
                    }
                  }
                }
                JOINT RightHandRing1
                {
                  OFFSET -8.5234 0.597198 -2.0164
                  CHANNELS 3 Zrotation Xrotation Yrotation
                  JOINT RightHandRing2
                  {
                    OFFSET -3.7188 -0.188309 -0.2328
                    CHANNELS 3 Zrotation Xrotation Yrotation
                    JOINT RightHandRing3
                    {
                      OFFSET -2.1191 -0.106598 -0.1332
                      CHANNELS 3 Zrotation Xrotation Yrotation
                      End Site
                      {
                        OFFSET -1.8737 -0.2304 -0.0886
                      }
                    }
                  }
                }
                JOINT RightHandPinky1
                {
                  OFFSET -7.9094 -0.601105 -3.4825
                  CHANNELS 3 Zrotation Xrotation Yrotation
                  JOINT RightHandPinky2
                  {
                    OFFSET -2.2874 -0.477005 -0.6314
                    CHANNELS 3 Zrotation Xrotation Yrotation
                    JOINT RightHandPinky3
                    {
                      OFFSET -1.6774 -0.349396 -0.4633
                      CHANNELS 3 Zrotation Xrotation Yrotation
                      End Site
                      {
                        OFFSET -1.4888 -0.4091 -0.3416
                      }
                    }
                  }
                }
                JOINT RightHandThumb1
                {
                  OFFSET -1.833 -1.38751 1.3896
                  CHANNELS 3 Zrotation Xrotation Yrotation
                  JOINT RightHandThumb2
                  {
                    OFFSET -3.41299 -1.12099 2.5732
                    CHANNELS 3 Zrotation Xrotation Yrotation
                    JOINT RightHandThumb3
                    {
                      OFFSET -2.24741 -0.804108 1.6192
                      CHANNELS 3 Zrotation Xrotation Yrotation
                      End Site
                      {
                        OFFSET -1.6527 -0.5689 1.1317
                      }
                    }
                  }
                }
              }
            }
          }
        }
      }
    }
  }
  JOINT RightUpLeg
  {
    OFFSET -9.1966 3.8861 -0.7581
    CHANNELS 3 Zrotation Xrotation Yrotation
    JOINT RightLeg
    {
      OFFSET -0.7359 -41.0265 0
      CHANNELS 3 Zrotation Xrotation Yrotation
      JOINT RightFoot
      {
        OFFSET 0 -40.2855 0
        CHANNELS 3 Zrotation Xrotation Yrotation
        JOINT RightToeBase
        {
          OFFSET 0 -5.6122 11.7359
          CHANNELS 3 Zrotation Xrotation Yrotation
          End Site
          {
            OFFSET 0 0 7.8731
          }
        }
      }
    }
  }
  JOINT LeftUpLeg
  {
    OFFSET 9.1965 3.8864 -0.7581
    CHANNELS 3 Zrotation Xrotation Yrotation
    JOINT LeftLeg
    {
      OFFSET 0.7359 -41.0268 0
      CHANNELS 3 Zrotation Xrotation Yrotation
      JOINT LeftFoot
      {
        OFFSET 0 -40.2855 0
        CHANNELS 3 Zrotation Xrotation Yrotation
        JOINT LeftToeBase
        {
          OFFSET 0 -5.6122 11.7359
          CHANNELS 3 Zrotation Xrotation Yrotation
          End Site
          {
            OFFSET 0 0 7.8731
          }
        }
      }
    }
  }
}
MOTION
Frames:	4
Frame Time:	0.0333333
1.6298 40.9843 2.85812 0 33.4499 -0 0.245496 -1.59594 -0.268426 0.483789 -3.19299 -0.530314 0.483789 -3.193 -0.530313 7.28237e-006 -9.12498 -1.094e-005 11.6474 -3.35181 0.420233 -39.3021 21.77 -30.4081 -32.155 -3.32748 17.8165 -12.4773 5.98896 -38.1166 20.8474 -32.6503 -43.851 2.48481e-017 -6.4605e-016 -6.36111e-015 -7.45443e-017 6.95746e-016 -1.27222e-014 5.46658e-016 0 -1.59028e-014 2.48481e-017 -6.4605e-016 -6.36111e-015 -0.0145991 -8.76396e-005 -2.68289e-007 -3.47873e-016 -8.44835e-016 -1.27222e-014 2.48481e-017 -6.4605e-016 -6.36111e-015 -0.0187535 -0.0011682 5.6268e-005 -7.70291e-016 -1.49089e-016 -0 2.48481e-017 -6.4605e-016 -6.36111e-015 -0.0122645 -0.00324927 0.000672153 -1.92811e-007 -2.79019e-007 -1.94162e-007 2.48481e-017 -6.4605e-016 -6.36111e-015 -7.45443e-017 6.95746e-016 -1.27222e-014 5.46658e-016 0 -1.59028e-014 35.2391 20.2704 30.2714 31.4486 -3.24918 -17.7232 11.9614 5.57553 36.6706 -14.5628 -30.9293 46.5885 -7.20594e-016 2.23633e-016 -3.18055e-015 -4.72114e-016 -6.4605e-016 3.18055e-015 -4.47266e-016 4.96962e-017 6.36111e-015 -7.20594e-016 2.23633e-016 -3.18055e-015 0.0149773 -8.87604e-005 4.22652e-006 -1.91121e-007 2.79826e-007 -1.96189e-007 -7.20594e-016 2.23633e-016 -3.18055e-015 0.01903 -0.00119187 -6.35928e-005 -1.90741e-007 2.79715e-007 -1.96203e-007 -7.20594e-016 2.23633e-016 -3.18055e-015 0.012212 -0.00323493 -0.000672297 -3.47873e-016 5.96354e-016 -6.36111e-015 -7.20594e-016 2.23633e-016 -3.18055e-015 -4.72114e-016 -6.4605e-016 3.18055e-015 -4.47266e-016 4.96962e-017 6.36111e-015 -60.6611 -17.5991 -21.5149 -100.066 89.7056 98.1605 49.1459 39.204 -55.4839 7.29664e-007 1.50959e-007 2.29607e-006 60.6406 -17.6122 21.4892 100.757 89.7289 -98.846 -49.177 39.1974 55.4933 6.4179e-006 3.32331e-006 3.15482e-006 
1.6298 41.0223 2.59894 0 33.9008 -0 0.246008 -1.61607 -0.26748 0.484753 -3.23326 -0.528328 0.484752 -3.23326 -0.528328 -2.51931e-005 -9.93221 2.54591e-005 11.5812 -3.94455 0.531099 -38.9675 21.4842 -30.7571 -32.2674 -3.3537 17.8415 -12.5858 6.06244 -38.3914 21.0623 -32.6453 -43.5826 -9.93923e-017 2.48481e-017 -9.54166e-015 -1.2424e-016 -2.48481e-016 -1.90833e-014 -2.48481e-017 -6.21202e-016 -1.90833e-014 -9.93923e-017 2.48481e-017 -9.54166e-015 -0.0146079 -9.17086e-005 3.94711e-006 8.44835e-016 2.73329e-016 -9.54166e-015 -9.93923e-017 2.48481e-017 -9.54166e-015 -0.0187808 -0.00117836 6.22827e-005 -9.93923e-017 2.48481e-016 -3.18055e-015 -9.93923e-017 2.48481e-017 -9.54166e-015 -0.0122427 -0.00323871 0.000674738 1.2424e-016 2.98177e-016 -6.36111e-015 -9.93923e-017 2.48481e-017 -9.54166e-015 -1.2424e-016 -2.48481e-016 -1.90833e-014 -2.48481e-017 -6.21202e-016 -1.90833e-014 34.9153 19.9711 30.6137 31.5831 -3.28253 -17.7531 12.0689 5.64555 36.9437 -14.7715 -30.9505 46.3254 -1.49089e-016 -8.94531e-016 9.54166e-015 2.48481e-016 -2.98177e-016 -6.36111e-015 3.97569e-016 -2.73329e-016 -0 -1.49089e-016 -8.94531e-016 9.54166e-015 0.0149862 -9.26e-005 -8.64707e-006 5.46658e-016 -4.96962e-017 -0 -1.49089e-016 -8.94531e-016 9.54166e-015 0.0190004 -0.00118594 -5.78144e-005 -3.23025e-016 -2.98177e-016 -0 -1.49089e-016 -8.94531e-016 9.54166e-015 0.01225 -0.00324504 -0.000673584 6.70898e-016 5.96354e-016 -9.54166e-015 -1.49089e-016 -8.94531e-016 9.54166e-015 2.48481e-016 -2.98177e-016 -6.36111e-015 3.97569e-016 -2.73329e-016 -0 -60.6401 -18.2195 -21.6205 -138.036 89.5356 136.124 49.5907 39.0271 -55.7414 1.45932e-006 3.01725e-007 4.59216e-006 60.6196 -18.2325 21.5946 140.223 89.5518 -138.305 -49.6213 39.0208 55.7501 -6.48394e-008 -2.29619e-006 -1.50852e-007 
1.6298 41.0608 2.3398 0 34.3517 -0 0.246502 -1.63611 -0.266518 0.485682 -3.27335 -0.52631 0.485682 -3.27332 -0.52631 5.03066e-006 -10.7404 -6.88685e-006 11.516 -4.53766 0.641407 -38.6352 21.1962 -31.1039 -32.3798 -3.37998 17.8664 -12.694 6.13642 -38.6662 21.2772 -32.6395 -43.3144 -3.47873e-016 5.46658e-016 1.27222e-014 4.96962e-017 5.2181e-016 1.27222e-014 -2.98177e-016 3.47873e-016 1.59028e-014 -3.47873e-016 5.46658e-016 1.27222e-014 -0.0146133 -9.18924e-005 -6.11081e-007 0 1.66482e-015 -0 -3.47873e-016 5.46658e-016 1.27222e-014 -0.0187557 -0.00117463 5.42452e-005 8.44835e-016 -1.73937e-016 6.36111e-015 -3.47873e-016 5.46658e-016 1.27222e-014 -0.0122559 -0.00324505 0.000676529 5.96354e-016 -7.70291e-016 -3.18055e-015 -3.47873e-016 5.46658e-016 1.27222e-014 4.96962e-017 5.2181e-016 1.27222e-014 -2.98177e-016 3.47873e-016 1.59028e-014 34.5941 19.6697 30.9537 31.7175 -3.31594 -17.7829 12.1761 5.71608 37.2166 -14.9804 -30.971 46.0622 -2.48481e-017 -4.96962e-017 -6.36111e-015 -1.98785e-016 2.48481e-017 -6.36111e-015 1.98785e-016 2.23633e-016 -6.36111e-015 -2.48481e-017 -4.96962e-017 -6.36111e-015 0.0149969 -9.27023e-005 3.59357e-007 1.09332e-015 2.98177e-016 3.18055e-015 -2.48481e-017 -4.96962e-017 -6.36111e-015 0.0189996 -0.00118838 -5.98095e-005 -4.22417e-016 4.22417e-016 3.18055e-015 -2.48481e-017 -4.96962e-017 -6.36111e-015 0.0122935 -0.00325504 -0.000678975 1.73937e-016 9.19379e-016 9.54166e-015 -2.48481e-017 -4.96962e-017 -6.36111e-015 -1.98785e-016 2.48481e-017 -6.36111e-015 1.98785e-016 2.23633e-016 -6.36111e-015 -60.6199 -18.8401 -21.7262 -152.616 89.2801 150.697 50.0335 38.8485 -55.9965 -3.9719e-006 2.25235e-006 6.59458e-006 60.5996 -18.8529 21.7001 154.297 89.2917 -152.373 -50.0636 38.8425 56.0046 7.29344e-007 -1.5071e-007 2.29621e-006 
1.62981 41.0998 2.08071 0 34.8025 -0 0.246998 -1.65621 -0.26556 0.486615 -3.31348 -0.524301 0.486615 -3.3135 -0.524301 -1.2117e-007 -11.5491 -5.49235e-006 11.4519 -5.13113 0.751177 -38.3056 20.9066 -31.4481 -32.4921 -3.40631 17.8913 -12.8018 6.21093 -38.9408 21.492 -32.6328 -43.0461 6.4605e-016 6.95746e-016 -3.18055e-015 -3.47873e-016 9.19379e-016 -0 3.97569e-016 -2.98177e-016 -0 6.4605e-016 6.95746e-016 -3.18055e-015 -0.0146033 -8.96525e-005 -2.31819e-006 9.44227e-016 -1.98785e-016 -0 6.4605e-016 6.95746e-016 -3.18055e-015 -0.0187807 -0.00117845 5.79734e-005 6.70898e-016 3.97569e-016 -0 6.4605e-016 6.95746e-016 -3.18055e-015 -0.0122558 -0.00324518 0.000672088 -3.97569e-016 3.97569e-016 3.18055e-015 6.4605e-016 6.95746e-016 -3.18055e-015 -3.47873e-016 9.19379e-016 -0 3.97569e-016 -2.98177e-016 -0 34.2754 19.3667 31.2911 31.8519 -3.34944 -17.8126 12.2829 5.78712 37.4894 -15.1895 -30.9906 45.7988 1.49089e-016 2.98177e-016 -9.54166e-015 1.2424e-016 9.44227e-016 -3.18055e-015 9.93923e-017 1.26725e-015 3.18055e-015 1.49089e-016 2.98177e-016 -9.54166e-015 0.0149979 -9.05794e-005 2.57754e-006 6.70898e-016 1.04362e-015 -2.22639e-014 1.49089e-016 2.98177e-016 -9.54166e-015 0.0190277 -0.00119608 -6.37698e-005 3.23025e-016 2.48481e-017 3.18055e-015 1.49089e-016 2.98177e-016 -9.54166e-015 0.0122653 -0.00324694 -0.000679428 5.2181e-016 8.19987e-016 -9.54166e-015 1.49089e-016 2.98177e-016 -9.54166e-015 1.2424e-016 9.44227e-016 -3.18055e-015 9.93923e-017 1.26725e-015 3.18055e-015 -60.6007 -19.4606 -21.832 -159.347 89.0029 157.421 50.4742 38.6683 -56.2492 -7.29572e-007 -1.50554e-007 -2.29613e-006 60.5804 -19.4733 21.8058 160.639 89.012 -158.707 -50.5037 38.6627 56.2567 1.07344e-014 6.36111e-015 -5.1684e-015 
